<svg width="414" height="65" viewBox="0 0 414 65" fill="none" xmlns="http://www.w3.org/2000/svg">
<path d="M64.5604 0.0856934H0V13.0034H64.5604V0.0856934Z" fill="#FAB72D"/>
<path d="M64.5604 25.8931H0V38.8108H64.5604V25.8931Z" fill="#EF7918"/>
<path d="M64.5604 51.7285H0V64.6462H64.5604V51.7285Z" fill="#E42313"/>
<path d="M315.388 13.0034L325.582 38.8107H305.167L315.388 13.0034ZM305.504 0.0856934L280.735 64.6461H295.535L300.393 51.7003H330.44L335.299 64.6461H350.014L323.757 0.0856934H305.504Z" fill="#1D1D1B"/>
<path d="M90.3672 0.0856934V64.6461H143.33V51.7284H103.313V38.8107H143.33V25.893H103.313V13.0034L143.33 12.9753V0.0856934H90.3672Z" fill="#1D1D1B"/>
<path d="M358.943 64.5899H393.905C404.324 64.5899 413.17 57.5133 413.17 45.438C413.17 40.4675 411.26 35.5813 405.307 32.3519C412.215 28.3361 413.17 24.2362 413.17 19.2657C413.142 8.76302 404.324 0.0856934 393.905 0.0856934H358.943V13.228H393.316C396.826 13.228 399.662 16.0643 399.662 19.5746C399.662 23.0848 396.826 25.9211 393.316 25.9211H365.402V38.7545H393.316C396.826 38.7545 399.662 41.5908 399.662 45.1011C399.662 48.6113 396.826 51.4476 393.316 51.4476H358.943V64.5619V64.5899Z" fill="#1D1D1B"/>
<path d="M262.875 0.0856934H227.268V64.6461H240.185V38.7545H262.875C273.547 38.7545 282.224 30.1053 282.224 19.4061C282.224 8.70685 273.547 0.0856934 262.875 0.0856934ZM262.286 25.9211H240.185V13.228H262.286C265.796 13.228 268.632 16.0643 268.632 19.5746C268.632 23.0848 265.796 25.9211 262.286 25.9211Z" fill="#1D1D1B"/>
<path d="M205.532 32.3519C212.44 28.3361 213.395 24.2362 213.395 19.2657C213.395 8.76302 204.577 0.0856934 194.158 0.0856934H158.859V64.5899H194.776C205.195 64.5899 214.04 57.5133 214.04 45.438C214.04 40.4675 211.485 35.5813 205.532 32.3519ZM171.749 13.228H193.541C197.051 13.228 199.887 16.0643 199.887 19.5746C199.887 23.0848 197.051 25.9211 193.541 25.9211H171.749V13.228ZM194.186 51.4757H171.749V38.7826H194.186C197.697 38.7826 200.533 41.6189 200.533 45.1291C200.533 48.6394 197.697 51.4757 194.186 51.4757Z" fill="#1D1D1B"/>
</svg>
