<svg width="179" height="109" viewBox="0 0 179 109" fill="none" xmlns="http://www.w3.org/2000/svg">
<path d="M56.4079 54.7492C54.9786 54.7492 53.5492 54.7492 52.0627 54.6296C34.8534 53.4932 19.9883 42.1287 19.3594 41.6502L22.5611 37.1044C22.5611 37.1044 36.7973 47.9305 52.4058 48.9474C71.7305 50.2633 91.6269 41.6502 106.149 35.3698C113.639 32.1399 119.528 29.5679 123.93 28.8502C141.597 26.039 147.543 29.5679 153.832 33.3362L154.232 33.5754L151.545 38.4801L151.145 38.2408C145.484 34.8315 140.568 31.9006 124.73 34.4726C120.957 35.0707 115.068 37.6427 108.207 40.5735C94.2569 46.6147 75.5039 54.7492 56.3507 54.7492" fill="#020302"/>
<path d="M64.0099 32.2596C62.2947 32.2596 60.6367 32.1998 58.9787 32.0801C47.4868 31.1231 36.7953 23.0484 36.3379 22.6895L39.4824 18.1437C39.4824 18.1437 49.4307 25.6801 59.3789 26.4577C78.3034 28.0128 96.1415 19.8783 98.8859 13.5979C99.572 12.0428 100.144 9.71005 99.3433 8.21473C98.8287 7.13809 97.5137 6.48015 95.4555 6.18108L96.2559 0.618469C100.029 1.2166 102.659 2.89136 104.089 5.58295C106.204 9.71005 104.375 14.6147 103.746 15.9904C99.7435 25.082 81.6194 32.2596 64.0099 32.2596Z" fill="#020302"/>
<path d="M146.569 108.401C145.597 108.401 144.625 108.282 143.596 107.983C139.937 106.966 137.193 103.796 136.564 99.9678C136.107 97.2164 136.907 94.7043 138.679 93.4482L141.767 98.0538C141.767 98.0538 141.767 98.8912 142.167 99.9678C142.453 100.745 143.253 102.061 145.083 102.6C147.255 103.198 149.657 102.42 151.029 100.686C151.715 99.7884 152.744 97.8744 151.486 95.1828C147.999 87.8856 138.508 85.3734 122.614 87.4669C118.154 88.065 110.779 90.9959 102.317 94.3454C87.6233 100.147 69.3849 107.444 52.7474 108.222C38.9685 108.88 25.8186 105.59 16.7852 99.1903L19.8154 94.5248C27.8197 100.147 39.9977 103.198 52.5187 102.6C68.2415 101.882 86.0797 94.7641 100.43 89.0818C109.235 85.5529 116.896 82.5622 121.985 81.8445C140.452 79.3921 151.715 82.9211 156.346 92.6108C158.233 96.5585 157.833 100.865 155.26 104.155C153.144 106.846 150 108.342 146.684 108.342" fill="#020302"/>
<path d="M178.872 88.4837H173.498C173.498 84.5361 172.354 79.6314 171.211 77.1192C167.38 68.6258 156.288 55.2875 124.786 60.9099C117.239 62.2856 109.063 65.8146 100.43 69.523C86.8796 75.3847 71.557 82.0239 53.6617 82.5622C44.7997 82.8015 17.0705 77.4781 0.604492 62.8239L4.09208 58.5174C19.3003 71.9753 45.7145 77.1192 53.5473 76.9398C70.4135 76.4613 85.2787 70.0613 98.3715 64.3791C107.291 60.4912 115.752 56.8426 123.871 55.4071C160.176 48.9473 172.469 66.7716 176.07 74.7865C177.443 77.8968 178.872 83.579 178.872 88.5435" fill="#020302"/>
</svg>
